# xmcd
# 
# Track frame offsets:
#     150
#     19419
#     37002
#     54265
#     70490
#     88727
#     106995
#     119770
#     139325
#     160165
#     178210
#     198267
#     212502
#     226945
#     242617
#     261557
#     282777
#     305032
# 
# Disc length: 4293
# 
# Revision: 7
# Processed by: cddbd v1.5.2PL0 Copyright (c) Steve Scherf et al.
# Submitted via: fre:ac v1.0.17
# 
DISCID=1110c312
DTITLE=Various Artist - Levottomat
DYEAR=0
DGENRE=Soundtrack
TTITLE0=Samuli Edelmann and Cata Mansikka-aho - Levottomat
TTITLE1=Jonna Tervomaa - Yhtä En Saa
TTITLE2=Ultra Bra - Heikko Valo
TTITLE3=Maija Vilkkumaa - Hiuksissa Hiekkaa
TTITLE4=Terhi Kokkonen and Mikko von Herzen - Lupaus
TTITLE5=Disco - Hei Älä Luule
TTITLE6=Egotrippi - Koivuniemen Herra
TTITLE7=HIM - Razorblade Kiss
TTITLE8=Kent - Musik Non Stop
TTITLE9=Lab - 'Til You're Numb
TTITLE10=The Crash - Sugared
TTITLE11=Lemonator - California
TTITLE12=Supperheads - Coffee Girl
TTITLE13=Jo Hope - Check Me Out
TTITLE14=Super - The Broken Girls
TTITLE15=Kemopetrol - Child Is My Name
TTITLE16=JS16 - Love Supreme
TTITLE17=Darude - Sandstorm
EXTD=
EXTT0=
EXTT1=
EXTT2=
EXTT3=
EXTT4=
EXTT5=
EXTT6=
EXTT7=
EXTT8=
EXTT9=
EXTT10=
EXTT11=
EXTT12=
EXTT13=
EXTT14=
EXTT15=
EXTT16=
EXTT17=
PLAYORDER=
